<svg width="234mm" height="131.9mm" version="1.1" viewBox="0 0 234 131.9" xmlns="http://www.w3.org/2000/svg"><defs><filter id="a" x="0" y="0" width="1" height="1" color-interpolation-filters="sRGB"><feColorMatrix values="0.21 0.72 0.15674 0 0 0.21 0.72 0.15674 0 0 0.21 0.72 0.15674 0 0 0 0 0 1 0 "/></filter></defs><g transform="translate(-.9338 -21.76)" fill="#fff"><path d="m127.2 153 43.33 0.6452v-50.3s7.866 0.874 17.67 0.874c30.78 0 46.71-20.49 46.71-42.92 0-24.76-15.25-39.52-41.27-39.52l-67.09 1.29c32.55 42.73 30.3 85.52 0.6452 129.9zm43.33-66.07v-48.26h21.95c14.27 0 19.91 9.419 19.91 23.99 0 18.16-12.92 24.96-30.49 24.96-5.341 0-9.419-0.3884-11.36-0.6797z" stroke-width=".2646"/><path transform="matrix(.2646 0 0 .2646 -58.18 -74.67)" d="m623.4 379c-1.135 41.48-3.044 89.51 5.031 131.5 8.166 42.51 26.52 79.82 55.14 98.77 0.6353 0.1604 22.52 1.855 23.71-27.78 0.6156-15.24-4.1-38.1-17.79-72.2-6.736-16.77-15.46-35.81-26.18-57.2-9.466-18.89-24.54-47.65-39.91-73.13zm-82.27 55.85c-1.046 55.68-2.726 74.96 1.332 107.7 3.096 24.98 8.61 41.1 14.15 50.6 11.36 19.47 23.95 14.58 37.14 16.69 23.16-6.566 21-37.63 7.984-73.31-12.47-34.19-36.1-75.86-60.61-101.7zm-81.66 29.39c-3.029 41.71-1.637 67.14 4.92 91.17 5.945 21.79 15 36.08 23.05 44.6 16.4 17.34 30.16 13.43 30.53 13.22 8.489-14.93 0.0402-40.72-12.95-68.33-12.01-25.52-31.32-59.45-45.55-80.66zm-62.45 39.8c-0.9002 27.48 1.64 47.97 5.314 63.64 3.588 15.3 8.175 25.47 12.22 31.47 8.318 12.34 15.63 10.02 23.93 11.63 13.66-3.285 10.29-22.03 0.6504-43.43-9.459-21-25.94-46.94-42.12-63.31zm-45.65 5.869c-3.169 20.76-1.55 37.65 1.85 50.81 3.372 13.05 8.473 22.3 13.1 28.18 9.394 11.94 17.55 11.42 17.77 11.35 5.274-7.275 0.8398-22.89-6.443-39.95-7.052-16.52-17.8-36.63-26.27-50.38zm-127.9 2.34c17.16 17.63 40.72 37.88 52.23 41.82 0.0749-3e-3 1.591-0.7374-4.129-5.83-5.72-5.093-18.5-13.47-48.1-35.99zm88.58 6.289c3.03 30.06 10.7 47.6 16.02 55.49 5.312 7.889 9.44 7.432 14.32 9.295 7.825-0.2522 5.246-11.12-1.453-24.23-6.689-13.09-17.77-29.09-28.88-40.55zm-55.14 0.2871c12.69 19.29 22.17 29.45 27.73 34.17 5.662 4.802 7.823 4.581 7.869 4.555-0.5547-5.433-20.73-24.96-35.6-38.72zm24.95 0.4375c6.103 22.03 15.16 35.75 21.2 42.24 6.043 6.492 9.716 6.61 9.809 6.586 2.805-6.56-16.7-32.22-31.01-48.83zm-47.5 30.57c21.94 10.47 48.7 17.96 55.2 15.04 6e-5 -0.0507-0.9506-1.774-8.303-4.1-7.352-2.326-21.21-4.888-46.9-10.94zm61.5 24.08c-8.754 0.1084-24.77 1.895-43.88 8.213 23.93 3.993 55.87 1.764 58.67-5.166-0.0483-0.0854-2.676-2.58-11.49-2.998-0.9419-0.0447-2.044-0.0643-3.295-0.0488zm34.93 17.22c-1.67-0.0122-3.641 0.1873-6.072 0.6973-6.342 1.33-29.71 9.208-54.81 26.08 18.47 2.055 38.55-0.9507 53.69-6.273 14.99-5.269 23.98-12.33 18.37-17.26-3.865-1.257-6.167-3.207-11.18-3.244zm52.12 21.62c-3.496-0.0312-8.384 0.6368-14.76 3.074-11.44 4.377-40.99 20.3-58.76 61.01 17.01-7.793 36.99-18.62 53.06-30.21 16.03-11.57 28.08-23.86 27.24-32.55-0.0887-0.0866-2.282-1.284-6.777-1.324zm301.2 4.807c-30.85 11.89-55.25 49.78-69.97 95.99-14.9 46.78-19.16 99.36-24.17 141.3 20.2-25.9 39.08-56.41 51.56-76.96 13.03-21.47 25.85-43.46 34.08-58.34 18.27-33.01 26.01-52.43 27.67-68.06 3.19-30.03-18.51-33.91-19.17-33.9zm-85.53 3.824c-13.5 2.352-25.49-1.96-40.22 18.55-7.234 10.07-15.69 27.14-23.36 54-10.78 37.73-11.2 54.14-21.18 116 31.17-28.16 61.31-73.65 80.34-112 19.09-38.49 26.65-70.33 4.416-76.56zm-170.8 3.053c-4.995 0.0835-9.996 1.236-15.92 7.98-4.584 5.223-10.17 14.53-15.2 29.5-5.219 15.51-9.699 36.31-11.83 68.36 18.41-15.06 37.48-40.02 49-61.04 11.85-21.61 16.43-39.97 3.131-44.77-3.188 0.2565-6.183-0.0794-9.18-0.0293zm89.26 4.188c-4.749-0.1486-15.74 1.369-30 14.63-9.292 8.642-20.58 23.05-29.95 45.26-10.61 25.17-15.7 50.74-20.43 97.24 19.61-23.71 43.01-56.71 59.89-85.41 17.35-29.5 29.46-56.72 23.05-71.39-0.0848-0.0469-0.9736-0.2825-2.557-0.332z" color="#000000" color-rendering="auto" dominant-baseline="auto" filter="url(#a)" image-rendering="auto" shape-rendering="auto" solid-color="#000000" stop-color="#000000" style="font-feature-settings:normal;font-variant-alternates:normal;font-variant-caps:normal;font-variant-east-asian:normal;font-variant-ligatures:normal;font-variant-numeric:normal;font-variant-position:normal;font-variation-settings:normal;inline-size:0;isolation:auto;mix-blend-mode:normal;shape-margin:0;shape-padding:0;text-decoration-color:#000000;text-decoration-line:none;text-decoration-style:solid;text-indent:0;text-orientation:mixed;text-transform:none;white-space:normal"/></g></svg>
